<svg version="1.1" xmlns="http://www.w3.org/2000/svg" viewBox="0 0 128.17367400052024 184.90528852119996">
  <!-- svg-source:excalidraw -->
  <defs>
    <style>
      @font-face {
        font-family: "Virgil";
        src: url("https://excalidraw.com/FG_Virgil.woff2");
      }
      @font-face {
        font-family: "Cascadia";
        src: url("https://excalidraw.com/Cascadia.woff2");
      }
    </style>
  </defs>
  <g transform="translate(18.03990279348227 40.06347252568946) rotate(0 45.557241586538396 56.00736177884616)"><path d="M59.383531912195274 2.003432383080508 C66.9791774439258 3.779227430960627, 75.17091796124463 11.152275605661032, 80.4478704438583 18.55650555879145 C85.72482292647199 25.960735511921868, 89.77028211717942 36.77737145018945, 91.04524680787736 46.42881210186301 C92.3202114985753 56.08025275353657, 91.13953720727613 67.46180318953594, 88.09765858804599 76.4651494688328 C85.05577996881584 85.46849574812967, 79.1607530395135 94.4043242160018, 72.79397509249648 100.44888977764415 C66.42719714547947 106.49345533928651, 57.871044955704534 111.75241811050628, 49.89699090594388 112.73254283868697 C41.92293685618323 113.71266756686765, 31.970312333505664 110.97858051066879, 24.949650793932577 106.32963814672821 C17.92898925435949 101.68069578278764, 11.788225626114073 93.24090029544722, 7.773021668505365 84.83888865504353 C3.7578177108966573 76.43687701463985, 0.9393445323078472 65.64890453967126, 0.8584270482803333 55.91756830430608 C0.7775095642528195 46.186232068940896, 3.3209830899167283 34.778737204121605, 7.287516764340282 26.450871242852447 C11.254050438763835 18.12300528158329, 17.673555799130895 10.20166601178611, 24.657629094821655 5.95037253669112 C31.641702390512414 1.699079061596131, 42.75794111697798 1.0887639570627847, 49.19195653848484 0.943110392282513 C55.625971959991695 0.7974568275022413, 60.07781419028748 3.964306338441749, 63.26172162386279 5.07645114800949 C66.44562905743811 6.18859595757723, 68.58641562501727 6.8780753673782975, 68.29540113993673 7.615979249688955 M51.41569051784018 -0.09557985045169914 C58.86325355361802 0.6738847809122994, 69.06958420131055 8.271407241152751, 75.13664023711937 14.55808934311922 C81.20369627292818 20.84477144508569, 85.17570289345798 28.304199894965464, 87.8180267326931 37.62451276134711 C90.46035057192822 46.94482562772876, 92.80862252075842 60.83207085445817, 90.99058327253003 70.4799665414091 C89.17254402430164 80.12786222836003, 82.55885627374155 88.99360754884209, 76.90979124332279 95.51188688305267 C71.26072621290402 102.03016621726324, 64.71055830242985 107.05906697858777, 57.09619309001741 109.58964254667254 C49.48182787760497 112.12021811475731, 38.96118121141744 113.78975219173311, 31.223599968848156 110.69534029156131 C23.486018726278875 107.6009283913895, 15.658058568968489 98.94549386116277, 10.670705634601724 91.02317114564168 C5.683352700234959 83.10084843012059, 2.5604861079271055 72.43342196534232, 1.2994823626475664 63.16140399843476 C0.03847861736802716 53.88938603152719, 0.27645956763859614 43.99376834789037, 3.1046831629244878 35.39106334419627 C5.932906758210379 26.78835834050217, 11.471480215800714 17.251886412848908, 18.268823934362917 11.545173976270156 C25.06616765292512 5.838461539691404, 38.10132882350395 2.767905735811282, 43.8887454742977 1.1507887247237534 C49.67616212509145 -0.466328286363775, 51.61877602084017 1.608858683334212, 52.993323839125416 1.8424719097449866 C54.36787165741066 2.0760851361557613, 52.43431994790137 1.8366096480029648, 52.136032384009184 2.5524680831884012" style="stroke: rgb(0, 0, 0); stroke-width: 1; fill: none;"></path></g><g transform="translate(41.78479462040548 70.09922973722797) rotate(0 5.146484375 6.859375)"><path d="M5.606629721200042 0.0153339580412033 C7.23725750052714 2.1971463899107526, 9.777939334782227 6.060380302878766, 11.0269685978166 6.703545179461835 M6.130341353660885 0.016599570257912644 C6.6844597049262 1.4568779944685053, 7.609487720537256 2.616721616306307, 10.561929841588464 6.736520166044321 M9.594781389218111 7.319214472255913 C9.232634826973559 8.072115103792274, 9.029541400497727 10.300888338049944, 5.944362650407896 13.406463151095117 M10.59796492158713 7.041622160020379 C9.165706992447888 9.054713032837695, 8.34793143253927 10.73762236583398, 5.944158445894451 13.914407082270158 M6.703520451024273 13.709731124345398 C4.339719989997106 10.740737012511845, 1.2808366547011856 8.740870745903678, -0.11874129835852554 7.84300274854955 M6.2401931704666005 14.06240451464066 C3.529125300365762 11.44483086382001, 1.448246501350822 8.645618683988294, -0.11369544835799877 7.298132196053592 M0.8149793233800218 7.070719608280851 C2.6384726425807026 4.418297500826262, 3.6322929836413023 3.145387439631211, 6.374668654788637 0.5722278765778104 M-0.04762781794998977 7.311987384891118 C1.7304530883038587 4.976455324446988, 3.9230044812185203 2.1091375951904534, 6.3266992633170585 0.0693453782421326" style="stroke: rgb(0, 0, 0); stroke-width: 1; fill: none;"></path></g><g transform="translate(74.19615279348261 70.75818406415107) rotate(0 5.138671875 6.65234375)"><path d="M6.554316025161126 -0.44099018083983416 C8.490044832449868 2.689209774036408, 8.725943466831758 5.061296971539123, 9.907906916140877 6.451997834559306 M6.226812838139309 0.23316729914266066 C7.524485339419686 1.8916247749327466, 8.933768361476064 4.178654078309584, 10.00339776088961 7.223937524241563 M10.4485963872824 7.2348523311462225 C8.888781817109454 9.7503025157625, 7.592399623628614 10.718644005073887, 6.490427393416459 13.86724337375295 M10.192789115227649 6.806592528341004 C8.651566172064694 9.2196112708424, 7.13859483618974 11.896359367338594, 6.325664461711611 13.006084626915497 M6.303561489591597 13.485534737843706 C4.464740037397623 11.844142031126077, 2.560913084890237 9.654991697088219, 0.25503898822975146 6.164438175458736 M5.87219292326063 12.895660040707094 C4.677719444793812 11.85315729967124, 2.249102390704868 9.61900805296847, -0.41838066687478265 6.7045801730804975 M-0.49431414137098434 6.143137355208775 C1.353627349639916 4.344405209253782, 3.8849078680334532 1.4957904902201538, 6.402138346190346 0.7912085697147069 M-0.2465601522618415 6.80483008803821 C1.972644168985559 5.455919586528197, 3.4929102400212253 3.2286713681661556, 5.915249328707645 -0.28777825239426735" style="stroke: rgb(0, 0, 0); stroke-width: 1; fill: none;"></path></g><g transform="translate(63.04260712040559 81.89820810261256) rotate(0 0.32421875 14.32421875)"><path d="M-0.05394573990270147 -0.01949834330225713 C0.07124086573021486 -0.04859919208065548, 0.31220156865674653 -0.03542028989140818, 0.6053858278457482 -0.034766557884722715 M-0.02046048824086029 -0.013071624566873653 C0.1484073789917602 0.0285924732228159, 0.25249528399763227 -0.028756044326873963, 0.6714859498188162 -0.01734129592550744 M2.4823137540370226 -0.9593413788825274 C0.532844111704253 6.1330477948977205, -0.21182109377441516 15.78051928984496, -0.829867897555232 29.36859211139381 M0.047615512274205685 -0.2781695118173957 C1.1130602111688495 6.271304264212813, 0.7596452286115527 13.141823915792338, 1.6265612384304404 27.659415275789797 M0.6116543080563133 28.638541686299867 C0.35325355484819737 28.68119998353526, 0.1359243976366997 28.63126331130501, 0.0027908233598282067 28.6189594022675 M0.6598775365029723 28.66106453497887 C0.4482673604125011 28.61976612077458, 0.27201419356897527 28.674949933529277, -0.0027966154983005247 28.65769828153534 M1.3262741584330797 29.228339223191142 C0.35491501710937884 18.576501766198632, -0.7222887931056174 12.774058153810618, -0.6280545573681593 -0.8215387184172869 M-0.4252384463325143 27.9633945832029 C0.4590647572956368 21.70287020442556, -0.15383165531537088 12.695337501978791, 0.22877861466258764 -0.6274916222319007" style="stroke: rgb(0, 0, 0); stroke-width: 1; fill: none;"></path></g><g><g transform="translate(50.64386913963608 123.07849656415044) rotate(0 6.48352778158619 4.364555133138779)"><path d="M-0.3195576656609773 -0.5680791210383177 C1.978651004160444 0.6351478704561792, 11.356730470185479 5.799156531567375, 13.359779609367251 7.356680016592145 M-0.39272404619492596 1.6175661247316748 C1.8181195002949488 3.4289247791313873, 9.80488893580002 7.916450211141879, 11.801438172673807 9.297189387315884" style="stroke: rgb(0, 0, 0); stroke-width: 1; fill: none;"></path></g></g><g><g transform="translate(68.4350350050197 132.5262129103047) rotate(0 8.187676185136638 -3.9666209470480567)"><path d="M-1.0267801154404879 1.0970475722104311 C1.8196004242946704 -0.3713042886306841, 13.020772414530319 -7.411705290401975, 15.950545669719578 -9.030289466306566 M-1.8190753869060428 -1.5280013415869327 C1.4140376342491556 -3.2527425756709034, 15.406090307847288 -7.62167698697808, 18.194427757179366 -8.938045694893226" style="stroke: rgb(0, 0, 0); stroke-width: 1; fill: none;"></path></g></g><g><g transform="translate(21.804025389635967 79.59382108338178) rotate(0 -4.313877968862641 -31.479606844112283)"><path d="M1.0873135697096588 0.11332345493137841 C-0.7049686102817456 -10.29851086847484, -7.749637074147662 -52.524825973436236, -9.715069507434965 -63.072537143155934 M0.772448305701837 -1.2278354666288944 C-0.9896395551009725 -11.789688237374648, -7.531468183382725 -52.47429985917174, -9.157372143352404 -62.663075513904914" style="stroke: rgb(0, 0, 0); stroke-width: 1; fill: none;"></path></g></g><g><g transform="translate(11.452462889635967 17.168039833381783) rotate(0 13.019433897356464 18.6108004526142)"><path d="M0.8332489024847745 0.15777184255421162 C5.319082694376508 6.423031915103395, 23.260910329346856 30.31396623539428, 27.49133068434894 36.717214207723735 M-1.4524628896359355 -0.8761456162389368 C3.048581233636166 5.237020518019175, 20.937752173657838 31.69663297090369, 25.7616772802826 38.09774652146734" style="stroke: rgb(0, 0, 0); stroke-width: 1; fill: none;"></path></g></g><g><g transform="translate(38.33918163963597 54.56647733338178) rotate(0 5.037133981054637 -21.253967941924927)"><path d="M0.8982900392264128 0.5584834981709719 C2.5925530405094226 -6.678040944660704, 8.332617013777297 -35.67342483115693, 9.724127710983158 -43.06641938202083 M-0.8633419133070857 -1.617497246330604 C0.6730689613179615 -9.034027595684552, 8.831212914899613 -35.79068175580663, 10.937609875416383 -42.8488600257691" style="stroke: rgb(0, 0, 0); stroke-width: 1; fill: none;"></path></g></g><g><g transform="translate(48.70636913963597 11.039133583381783) rotate(0 8.107581102405675 15.258566099326117)"><path d="M0.9849713969975709 -0.8456955302506686 C3.1643997638175883 4.27472319714725, 10.694893003379306 25.648785914108156, 12.675590519979597 31.032333685085177 M1.2069572394434362 1.1529051741119476 C3.9783706474645686 6.233247720515355, 13.446826077237105 26.31019410393201, 15.230190807813779 31.36282772890292" style="stroke: rgb(0, 0, 0); stroke-width: 1; fill: none;"></path></g></g><g><g transform="translate(62.35090038963597 42.60944608338178) rotate(0 10.14351835102309 -16.754649532218465)"><path d="M-1.0514335345476866 -0.9481461513787508 C2.4731642811248697 -6.484121238067746, 17.5660571941485 -27.438858341053127, 21.29884554632008 -32.60944608338177 M1.5510704179946333 -0.8998529810551554 C5.400501757000263 -5.7868232569936655, 18.25446214778659 -26.07334127672948, 21.338470236593857 -31.006021877909077" style="stroke: rgb(0, 0, 0); stroke-width: 1; fill: none;"></path></g></g><g><g transform="translate(83.61261913963597 10.652414833381783) rotate(0 0.9424437777744856 19.99203418008983)"><path d="M-0.44682285301387303 0.21406216733157635 C0.09792215911050639 6.709266381586591, 2.93066441702346 33.24569393110772, 3.381598012521863 39.770006192848086 M-1.496710456972942 0.6895314591284842 C-1.1860321824407827 7.27924535931709, 1.8717990452392645 32.635332536216204, 2.7197823410574347 38.88572893342935" style="stroke: rgb(0, 0, 0); stroke-width: 1; fill: none;"></path></g></g><g><g transform="translate(85.99933788963597 50.60553983338178) rotate(0 15.102356711989216 -16.17322650067507)"><path d="M0.472913969680667 -0.7697695445269346 C5.573123193904758 -6.009109106784066, 24.612242520973087 -26.43528052481512, 29.80509739033878 -31.57668345682323 M-1.7873041293863208 -1.4376296070870014 C3.734018241083249 -6.4142867537991455, 26.49628191194497 -26.409838920996215, 31.992017553364857 -31.233494024937972" style="stroke: rgb(0, 0, 0); stroke-width: 1; fill: none;"></path></g></g><g><g transform="translate(116.55011913963597 18.734446083381783) rotate(0 -7.045592991407034 28.03224775767886)"><path d="M1.0529621768742798 0.33723989836871615 C-1.389638061448932 9.563687881951532, -13.163741786405446 45.332988839472335, -15.714740843698383 54.44004633538425 M1.6235548608843238 -0.9633102528098971 C-0.9985081664379685 8.774849956150478, -11.960920529430732 47.347884265795976, -15.071088386541232 57.0278057681676" style="stroke: rgb(0, 0, 0); stroke-width: 1; fill: none;"></path></g></g><g><g transform="translate(48.84579221655895 77.56617685261256) rotate(0 0.23553134818922672 -1.0265737093938583)"><path d="M-0.43671934492886066 0.7205009389668702 C-0.2522911418229341 0.7467409818122783, 1.0468833457678557 -0.43177685650686426, 1.2641061197966337 -0.9788037966936827 M-0.6606533432845028 -0.8175336862262339 C-0.9826878015045077 -1.510418507422631, -0.6061971885804088 -2.6422503815746556, -0.6852865765336902 -2.773648357754573" style="stroke: rgb(0, 0, 0); stroke-width: 1; fill: none;"></path></g></g><g><g transform="translate(21.921212889635967 61.66803983338178) rotate(0 0.9701912892703035 -11.232663999130011)"><path d="M1.0574773360043765 -0.11151373274624343 C1.1517678905278446 -3.3714011220882334, 0.4394389916211367 -16.83665941444536, 0.3206066060811281 -20.5539866078645 M0.30621337437070917 -1.5142057515028866 C0.4904002612177284 -4.938235550705965, 1.671267994279042 -18.95887211470244, 1.6341692041698845 -22.353814265513794" style="stroke: rgb(230, 119, 0); stroke-width: 1; fill: none;"></path></g></g><g><g transform="translate(21.921212889635967 40.56257108338178) rotate(0 4.746615055422296 6.609402789776212)"><path d="M-0.18230667002499112 0.6747312236577272 C1.2750521869709093 3.198804772769411, 8.217701762045424 11.655193194622795, 9.789178432151676 13.960223393514752 M-0.29594832130707793 -0.7414178139623255 C1.2388004324988773 1.6903646533035983, 7.080318581179405 11.311669611070926, 8.738983474588021 13.639426838392392" style="stroke: rgb(230, 119, 0); stroke-width: 1; fill: none;"></path></g></g><g><g transform="translate(42.98761913963597 45.80475858338178) rotate(0 4.693900174717385 -11.72850194089115)"><path d="M0.7220401179045439 0.7985313702374697 C1.7672312350322803 -3.24485584013164, 6.181752376879254 -20.150026078149676, 7.203085232898593 -24.25553525201976 M1.5829498555418104 0.7524768587294965 C2.7718930501894405 -2.954376388853416, 7.813509722963596 -19.84117324090563, 8.665760231530294 -23.810676301186906" style="stroke: rgb(230, 119, 0); stroke-width: 1; fill: none;"></path></g></g><g><g transform="translate(50.68293163963597 21.851633583381783) rotate(0 5.096188931250936 10.36734654806088)"><path d="M-0.6175223898142576 -0.42327872402966016 C0.9736341365923485 3.0315584909170865, 8.052879461521904 16.635242332145573, 10.136149864271284 20.11900448910892 M-1.104725347822532 0.0027352585550397546 C0.8787361012243975 3.2984932445641606, 9.367292855714137 17.594193385457622, 11.29710321032442 21.157971820151435" style="stroke: rgb(230, 119, 0); stroke-width: 1; fill: none;"></path></g></g><g><g transform="translate(73.34699413963597 39.57428983338178) rotate(0 3.227269612625264 -6.2786852169781895)"><path d="M-0.15609575025737277 1.1020393263548611 C1.1330171156674624 -1.2675283659249545, 5.486927764490247 -10.99347404129803, 6.610634975507855 -13.659409760311245 M-0.04647605306468905 0.13444251439534138 C1.3206168606225401 -1.8702396393660452, 5.701387843424454 -11.031003808164968, 6.564924877518788 -13.511549790585413" style="stroke: rgb(230, 119, 0); stroke-width: 1; fill: none;"></path></g></g><g><g transform="translate(79.41730663963597 24.808664833381783) rotate(0 2.1909576239390276 11.76944953591098)"><path d="M-0.5922959435731172 0.4825077820569277 C0.021674165253837918 4.128292426342766, 1.9689635566125312 18.513148535167176, 2.586272669956088 22.13602020032704 M-0.4262434182409198 1.323958092564717 C0.6088230903105187 5.0640538373931, 4.205767788902546 19.70024540646312, 4.974211191451177 23.056391289765017" style="stroke: rgb(230, 119, 0); stroke-width: 1; fill: none;"></path></g></g><g><g transform="translate(97.42511913963597 65.41803983338178) rotate(0 3.337828274453045 -13.501398270507352)"><path d="M1.1690304089337589 -0.9331303585320712 C2.1079633483042324 -5.157724423085649, 5.2567929475257795 -22.230182066435614, 6.166025798395276 -26.10774816162884 M-0.8455846170242877 -0.8950483793858439 C0.27046364499566444 -5.225902830942844, 6.237149357233817 -21.67592904973465, 7.521241165930405 -25.546741873407736" style="stroke: rgb(230, 119, 0); stroke-width: 1; fill: none;"></path></g></g><g><g transform="translate(103.52668163963597 40.40241483338178) rotate(0 -8.41145774922336 4.690070790569294)"><path d="M-0.8986338447779416 -0.3543212760239839 C-3.840526583914955 1.2343667995184662, -14.77302925499777 7.970326794311403, -17.31575245372951 9.471899772807955 M0.8340388660971074 -0.10989462652243676 C-2.2047821390287328 1.2844659023638816, -14.799226527676606 8.091777314161881, -17.65695436454378 9.73446285716258" style="stroke: rgb(230, 119, 0); stroke-width: 1; fill: none;"></path></g></g><g><g transform="translate(51.23311192809763 130.47543166030442) rotate(0 -0.7891045857221002 19.52721572109499)"><path d="M0.0068680655211210695 0.328390770033002 C-0.450355266407132 6.865518594657383, -1.355216347053647 32.974628040070336, -1.5850772369652986 39.32419444806874 M-0.9416473326925189 -0.7183964005764574 C-1.2986273837927729 6.162140272393201, -0.4572473112586886 33.10795489851075, -0.5485897261742503 39.77282784276642" style="stroke: rgb(230, 119, 0); stroke-width: 1; fill: none;"></path></g></g><g><g transform="translate(50.942847505020836 173.85163358338133) rotate(0 5.149864644929778 -17.907162095233815)"><path d="M-0.905117904022336 1.0536549378186464 C0.936895824596286 -4.909463412687183, 9.161056960746645 -30.45851029865444, 11.20484719388187 -36.867979128286244 M-0.21615335323847829 0.7214858254138381 C1.2569042848702519 -5.01107752806507, 7.49557058176957 -29.511509901052342, 9.309622301375493 -35.96876530355774" style="stroke: rgb(230, 119, 0); stroke-width: 1; fill: none;"></path></g></g><g><g transform="translate(62.453965293480906 130.5009725256902) rotate(0 4.171314342999835 17.48871344483456)"><path d="M0.17208174951374522 0.15813077799975872 C1.7511212715258202 5.946251989528537, 8.134387287373343 28.86551963202655, 9.646409826353192 34.47685289494693 M-1.7146346688922496 0.10989790222607554 C-0.2674006749844797 6.193371990835294, 8.496511265967662 29.392090358352288, 10.057263354891912 34.86752898744307" style="stroke: rgb(230, 119, 0); stroke-width: 1; fill: none;"></path></g></g><g><g transform="translate(74.79861673579023 166.27441002568906) rotate(0 -1.3001721780793787 -16.581676819468868)"><path d="M0.3228350054472684 0.36854794509708877 C-0.5932358810057243 -5.2827016106496245, -3.6030138521144788 -28.64910333467026, -4.33464221842587 -34.27546313516795 M1.734297862267122 1.1121094962302598 C1.56566611082914 -4.744653749928499, -1.002029223029191 -27.980072758759686, -1.8950074691418557 -33.56648044652306" style="stroke: rgb(230, 119, 0); stroke-width: 1; fill: none;"></path></g></g><g><g transform="translate(39.91189798579069 140.93486675645863) rotate(0 26.299817465618275 -9.13184041696357)"><path d="M-1.0786231588572264 -0.6185011971741915 C0.24331136234104633 -3.606290935352445, 0.9099753070622674 -14.92765592224896, 7.465429954603314 -18.365036343410612 C14.02088460214436 -21.802416764572264, 30.551966703807317 -25.080735308801135, 38.25410472638905 -21.2427837241441 C45.95624274897079 -17.404832139487066, 54.119919277106725 3.659883551920453, 53.678258090093735 4.662673164531588 C53.236596903080745 5.665462777142723, 42.89297121055424 -12.09906512784461, 35.604137604311106 -15.226046048477292 C28.31530399806797 -18.353026969109973, 14.15481797941029 -14.117904427523415, 9.945256452634931 -14.099212359264493 M1.088148825103417 1.3719365670438854 C2.3315247359219935 -1.7885348094347866, 1.5266542773786922 -13.967079778099434, 7.846746525401249 -17.672847356284038 C14.166838773423805 -21.378614934468644, 31.373020945622898 -24.591428628846383, 39.00870231323876 -20.862668902063742 C46.64438368085462 -17.1339091752811, 54.30266737295625 3.803218304530407, 53.6608347310964 4.699711004411801 C53.01900208923655 5.596203704293196, 42.27481444560922 -12.164265788678701, 35.15770646207966 -15.483712702775374 C28.04059847855009 -18.803159616872048, 14.923718857103959 -15.243637276475008, 10.958186829918995 -15.21697048016824" style="stroke: rgb(230, 119, 0); stroke-width: 1; fill: none;"></path></g></g><g transform="translate(79.11562394732834 75.69057589107405) rotate(0 0.453125 0)"><path d="M0.948600777276075 -0.06025689990984214 C0.9939781215929007 0.3254522135947575, 0.9824548662251834 0.7143741317520083, 0.9418025503780538 1.0650892597988648 M0.9774529646102996 -0.016448694024684747 C0.9353356432018786 0.3468685351636576, 0.9490517616328304 0.5772239938050477, 0.8764755856326941 1.034061017222533 M0.9222427217352803 1.0144232937854485 C0.9209447204338538 0.6616074358293711, 1.0323439891610378 0.38450476504616926, 0.9635205893341456 -0.009994891746632303 M0.9048296707239585 1.038775381400367 C0.8980605566229304 0.6864330086333316, 1.022813902368818 0.3041012149142286, 0.9678004780764637 -0.01746294090885353 M1.0013291937225666 -0.043785549722842876 C0.7495428550024524 0.42306971994396203, 0.2338619602020377 0.6558490315517577, 0.05563549653723551 0.9894984023874045 M0.9511622159426152 0.04533424192754851 C0.7306461590210459 0.21063071171670772, 0.48692705383030277 0.4347794167048599, 0.022287389350292758 1.042314430768455 M-0.10232364242365145 1.0177445121923507 C0.4065753437764227 0.7564337068127521, 0.5714319864085978 0.21994834011256953, 1.0103803895983055 -0.125500205219922 M-0.05016794913310075 1.0422316037817614 C0.1965764785019277 0.7093726858531053, 0.4681880440499583 0.4657480101329394, 0.9796945154930049 0.025377443632494556" style="stroke: rgb(0, 0, 0); stroke-width: 1; fill: none;"></path></g></svg>